<svg fill="white" height="512pt" viewBox="0 -91 512.001 512" width="512pt" xmlns="http://www.w3.org/2000/svg"><path d="m222.292969 254.960938h47.546875c4.132812 0 7.480468-3.351563 7.480468-7.480469 0-4.132813-3.351562-7.480469-7.480468-7.480469h-47.546875c-4.128907 0-7.480469 3.347656-7.480469 7.480469 0 4.128906 3.351562 7.480469 7.480469 7.480469zm0 0"/><path d="m304.496094 240c-4.132813 0-7.480469 3.347656-7.480469 7.480469 0 4.128906 3.347656 7.480469 7.480469 7.480469h53.234375c4.132812 0 7.480469-3.351563 7.480469-7.480469 0-4.132813-3.351563-7.480469-7.480469-7.480469zm0 0"/><path d="m413.269531 240h-20.964843c-4.132813 0-7.480469 3.347656-7.480469 7.480469 0 4.128906 3.351562 7.480469 7.480469 7.480469h20.964843c4.132813 0 7.480469-3.351563 7.480469-7.480469 0-4.132813-3.347656-7.480469-7.480469-7.480469zm0 0"/><path d="m222.292969 228.691406h33.707031c4.132812 0 7.480469-3.347656 7.480469-7.480468 0-4.128907-3.347657-7.476563-7.480469-7.476563h-33.707031c-4.128907 0-7.480469 3.347656-7.480469 7.476563 0 4.132812 3.351562 7.480468 7.480469 7.480468zm0 0"/><path d="m282.429688 221.210938c0 4.132812 3.347656 7.480468 7.480468 7.480468h55.851563c4.132812 0 7.480469-3.347656 7.480469-7.480468 0-4.128907-3.347657-7.476563-7.480469-7.476563h-55.851563c-4.132812 0-7.480468 3.347656-7.480468 7.476563zm0 0"/><path d="m372.878906 221.210938c0 4.132812 3.347656 7.480468 7.480469 7.480468h32.910156c4.132813 0 7.480469-3.347656 7.480469-7.480468 0-4.128907-3.347656-7.476563-7.480469-7.476563h-32.910156c-4.132813 0-7.480469 3.347656-7.480469 7.476563zm0 0"/><path d="m277.140625 187.464844h-54.847656c-4.128907 0-7.480469 3.351562-7.480469 7.480468 0 4.132813 3.351562 7.480469 7.480469 7.480469h54.847656c4.132813 0 7.480469-3.347656 7.480469-7.480469 0-4.128906-3.347656-7.480468-7.480469-7.480468zm0 0"/><path d="m367.371094 187.464844h-55.6875c-4.128906 0-7.480469 3.351562-7.480469 7.480468 0 4.132813 3.351563 7.480469 7.480469 7.480469h55.6875c4.132812 0 7.480468-3.347656 7.480468-7.480469 0-4.128906-3.347656-7.480468-7.480468-7.480468zm0 0"/><path d="m413.269531 202.425781c4.132813 0 7.480469-3.347656 7.480469-7.480469 0-4.128906-3.347656-7.480468-7.480469-7.480468h-11.851562c-4.132813 0-7.480469 3.351562-7.480469 7.480468 0 4.132813 3.347656 7.480469 7.480469 7.480469zm0 0"/><path d="m46.128906 100.878906h15.957032c4.132812 0 7.480468-3.347656 7.480468-7.476562 0-4.132813-3.347656-7.480469-7.480468-7.480469h-15.957032c-4.132812 0-7.480468 3.347656-7.480468 7.480469 0 4.128906 3.347656 7.476562 7.480468 7.476562zm0 0"/><path d="m95.675781 100.878906h21.265625c4.132813 0 7.480469-3.347656 7.480469-7.476562 0-4.132813-3.347656-7.480469-7.480469-7.480469h-21.265625c-4.128906 0-7.480469 3.347656-7.480469 7.480469 0 4.128906 3.351563 7.476562 7.480469 7.476562zm0 0"/><path d="m99.488281 122.324219c0-4.132813-3.347656-7.480469-7.480469-7.480469h-45.878906c-4.132812 0-7.480468 3.347656-7.480468 7.480469 0 4.128906 3.347656 7.480469 7.480468 7.480469h45.878906c4.132813 0 7.480469-3.351563 7.480469-7.480469zm0 0"/><path d="m69.066406 141.773438h-22.9375c-4.132812 0-7.480468 3.347656-7.480468 7.476562 0 4.132812 3.347656 7.480469 7.480468 7.480469h22.9375c4.132813 0 7.480469-3.347657 7.480469-7.480469 0-4.128906-3.347656-7.476562-7.480469-7.476562zm0 0"/><path d="m118.769531 141.773438h-14.292969c-4.132812 0-7.480468 3.347656-7.480468 7.476562 0 4.132812 3.347656 7.480469 7.480468 7.480469h14.292969c4.132813 0 7.480469-3.347657 7.480469-7.480469 0-4.128906-3.347656-7.476562-7.480469-7.476562zm0 0"/><path d="m118.769531 222.828125h-22.34375c-4.132812 0-7.480469 3.347656-7.480469 7.480469 0 4.128906 3.347657 7.480468 7.480469 7.480468h22.34375c4.132813 0 7.480469-3.351562 7.480469-7.480468 0-4.132813-3.347656-7.480469-7.480469-7.480469zm0 0"/><path d="m62.015625 222.828125h-15.886719c-4.132812 0-7.480468 3.347656-7.480468 7.480469 0 4.128906 3.347656 7.480468 7.480468 7.480468h15.886719c4.128906 0 7.480469-3.351562 7.480469-7.480468 0-4.132813-3.347656-7.480469-7.480469-7.480469zm0 0"/><path d="m296.289062 47.046875h-38.292968c-4.132813 0-7.480469 3.351563-7.480469 7.480469 0 4.132812 3.347656 7.480468 7.480469 7.480468h38.292968c4.132813 0 7.480469-3.347656 7.480469-7.480468 0-4.128906-3.351562-7.480469-7.480469-7.480469zm0 0"/><path d="m223.46875 47.046875h-31.710938c-4.132812 0-7.480468 3.351563-7.480468 7.480469 0 4.132812 3.347656 7.480468 7.480468 7.480468h31.710938c4.132812 0 7.480469-3.347656 7.480469-7.480468 0-4.128906-3.347657-7.480469-7.480469-7.480469zm0 0"/><path d="m504.519531 100.574219c4.132813 0 7.480469-3.351563 7.480469-7.480469v-22.515625c0-5.78125-4.171875-10.605469-9.917969-11.46875-21.355469-3.226563-38.714843-19.59375-43.199219-40.726563-2.261718-10.652343-11.78125-18.382812-22.640624-18.382812h-350.765626c-10.914062 0-20.449218 7.679688-22.667968 18.261719-5.039063 24.011719-26.539063 41.441406-51.207032 41.441406-3.128906-.039063-6.011718 1.203125-8.203124 3.394531-2.191407 2.191406-3.398438 5.101563-3.398438 8.199219v187.539063c0 3.09375 1.207031 6.007812 3.402344 8.199218 2.191406 2.191406 5.101562 3.398438 8.28125 3.398438h.003906c24.582031 0 46.082031 17.429687 51.121094 41.441406.136718.660156.304687 1.308594.5 1.949219 2.917968 9.5625 11.933594 16.3125 22.167968 16.3125h350.765626c10.859374 0 20.378906-7.730469 22.640624-18.382813 4.484376-21.136718 21.847657-37.5 43.199219-40.726562 5.746094-.867188 9.917969-5.691406 9.917969-11.472656v-132.550782c0-4.132812-3.347656-7.480468-7.480469-7.480468-4.128906 0-7.480469 3.347656-7.480469 7.480468v129.71875c-26.183593 5.113282-47.214843 25.65625-52.789062 51.925782-.804688 3.78125-4.171875 6.527343-8.007812 6.527343h-273.882813v-300.214843h273.882813c3.835937 0 7.203124 2.746093 8.003906 6.527343 5.578125 26.265625 26.605468 46.808594 52.792968 51.925781v19.679688c0 4.128906 3.347657 7.480469 7.480469 7.480469zm-357.121093 214.601562h-61.921876c-3.875 0-7.253906-2.679687-8.027343-6.375-6.253907-29.800781-32.203125-51.722656-62.488281-53.242187v-180.976563c30.238281-1.484375 56.230468-23.417969 62.488281-53.246093.773437-3.695313 4.152343-6.375 8.027343-6.375h61.921876zm0 0"/><path d="m233.8125 82.3125c-1.957031-3.964844-5.917969-6.429688-10.34375-6.429688-4.421875 0-8.386719 2.464844-10.34375 6.429688l-5.367188 10.875-12 1.742188c-4.378906.636718-7.945312 3.648437-9.3125 7.851562-1.367187 4.207031-.25 8.738281 2.917969 11.824219l8.683594 8.464843-2.050781 11.957032c-.746094 4.355468 1.011718 8.679687 4.589844 11.28125 3.578124 2.601562 8.230468 2.9375 12.148437.878906l10.734375-5.644531 10.734375 5.644531c1.703125.894531 3.546875 1.335938 5.378906 1.335938 2.382813 0 4.75-.746094 6.769531-2.214844 3.578126-2.601563 5.335938-6.921875 4.589844-11.28125l-2.050781-11.957032 8.683594-8.464843c3.167969-3.085938 4.285156-7.617188 2.917969-11.824219-1.363282-4.207031-4.933594-7.214844-9.308594-7.851562l-12.003906-1.742188zm3.347656 31.304688c-2.71875 2.652343-3.960937 6.46875-3.316406 10.210937l1.179688 6.886719-6.1875-3.253906c-1.679688-.882813-3.523438-1.324219-5.367188-1.324219s-3.6875.441406-5.367188 1.324219l-6.1875 3.253906 1.179688-6.886719c.640625-3.742187-.597656-7.5625-3.316406-10.210937l-5.003906-4.878907 6.914062-1.003906c3.761719-.546875 7.007812-2.90625 8.6875-6.3125l3.09375-6.265625 3.09375 6.265625c1.679688 3.40625 4.925781 5.765625 8.683594 6.3125l6.914062 1.003906zm0 0"/><path d="m350.953125 102.785156c-1.367187-4.207031-4.9375-7.214844-9.3125-7.851562l-12.003906-1.746094-5.367188-10.875c-1.957031-3.964844-5.921875-6.429688-10.34375-6.429688s-8.386719 2.464844-10.34375 6.429688l-5.367187 10.875-12.003906 1.742188c-4.375.636718-7.945313 3.648437-9.3125 7.851562-1.363282 4.207031-.246094 8.738281 2.921874 11.824219l8.683594 8.46875-2.050781 11.953125c-.746094 4.359375 1.011719 8.679687 4.589844 11.28125 3.578125 2.597656 8.230469 2.9375 12.148437.878906l10.734375-5.644531 10.734375 5.644531c1.703125.894531 3.542969 1.335938 5.378906 1.335938 2.382813 0 4.746094-.746094 6.769532-2.214844 3.578125-2.601563 5.335937-6.925782 4.585937-11.28125l-2.046875-11.953125 8.683594-8.464844c3.167969-3.085937 4.289062-7.617187 2.921875-11.824219zm-23.339844 10.835938c-2.71875 2.652344-3.957031 6.46875-3.3125 10.207031l1.179688 6.886719-6.1875-3.253906c-1.679688-.882813-3.523438-1.324219-5.367188-1.324219s-3.6875.441406-5.367187 1.324219l-6.1875 3.253906 1.183594-6.890625c.636718-3.742188-.601563-7.558594-3.320313-10.207031l-5.003906-4.878907 6.914062-1.003906c3.761719-.546875 7.007813-2.90625 8.6875-6.3125l3.09375-6.265625 3.09375 6.269531c1.679688 3.402344 4.925781 5.761719 8.683594 6.308594l6.914063 1.003906zm0 0"/><path d="m200.566406 280.105469h234.429688c8.257812 0 14.972656-6.714844 14.972656-14.972657v-87.84375c0-8.253906-6.714844-14.96875-14.972656-14.96875h-151.183594c-4.132812 0-7.480469 3.347657-7.480469 7.480469 0 4.128907 3.347657 7.480469 7.480469 7.480469l151.195312.007812-.011718 87.855469-234.441406-.011719.011718-87.851562h48.703125c4.128907 0 7.476563-3.351562 7.476563-7.480469 0-4.132812-3.347656-7.480469-7.476563-7.480469h-48.703125c-8.253906 0-14.96875 6.714844-14.96875 14.96875v87.84375c0 8.257813 6.714844 14.972657 14.96875 14.972657zm0 0"/><path d="m441.40625 102.785156c-1.363281-4.207031-4.933594-7.214844-9.3125-7.851562l-12-1.746094-5.367188-10.875c-1.957031-3.96875-5.921874-6.429688-10.34375-6.429688-4.421874 0-8.386718 2.464844-10.34375 6.429688l-5.367187 10.875-12 1.742188c-4.378906.636718-7.949219 3.648437-9.3125 7.855468-1.367187 4.203125-.25 8.734375 2.917969 11.824219l8.683594 8.464844-2.046876 11.953125c-.75 4.355468 1.007813 8.679687 4.585938 11.28125 3.578125 2.601562 8.234375 2.9375 12.148438.878906l10.734374-5.644531 10.734376 5.644531c1.703124.894531 3.546874 1.335938 5.378906 1.335938 2.382812 0 4.75-.746094 6.773437-2.214844 3.574219-2.601563 5.332031-6.925782 4.585938-11.28125l-2.050781-11.953125 8.683593-8.464844c3.167969-3.085937 4.285157-7.617187 2.917969-11.824219zm-23.335938 10.835938c-2.71875 2.652344-3.957031 6.46875-3.316406 10.207031l1.183594 6.886719-6.1875-3.253906c-3.359375-1.765626-7.371094-1.761719-10.734375 0l-6.1875 3.253906 1.179687-6.886719c.644532-3.742187-.59375-7.558594-3.316406-10.210937l-5.003906-4.878907 6.917969-1.003906c3.753906-.546875 7.003906-2.90625 8.683593-6.3125l3.09375-6.265625 3.089844 6.265625c1.679688 3.40625 4.925782 5.765625 8.6875 6.3125l6.914063 1.003906zm0 0"/></svg>