<svg fill="white" id="Capa_1" enable-background="new 0 0 511.995 511.995" height="512" viewBox="0 0 511.995 511.995" width="512" xmlns="http://www.w3.org/2000/svg"><path d="m234.57 276.931h-72.582c-6.893 0-12.5 5.607-12.5 12.5v26.695c0 6.893 5.607 12.5 12.5 12.5h72.582c6.893 0 12.5-5.607 12.5-12.5v-26.695c0-6.893-5.607-12.5-12.5-12.5zm-2.5 36.695h-67.582v-21.695h67.582z"/><path d="m350.01 276.931h-72.582c-6.893 0-12.5 5.607-12.5 12.5v26.695c0 6.893 5.607 12.5 12.5 12.5h72.582c6.893 0 12.5-5.607 12.5-12.5v-26.695c0-6.893-5.608-12.5-12.5-12.5zm-2.5 36.695h-67.582v-21.695h67.582z"/><path d="m482.082 46.344h-84.161v-26.402c0-10.996-8.947-19.942-19.943-19.942h-243.959c-10.996 0-19.942 8.946-19.942 19.942v26.402h-84.164c-12.406 0-22.5 10.093-22.5 22.5v73.697c0 4.142 3.357 7.5 7.5 7.5s7.5-3.358 7.5-7.5v-73.697c0-4.136 3.364-7.5 7.5-7.5h84.164v295.477h-91.664v-178.78c0-4.142-3.357-7.5-7.5-7.5s-7.5 3.358-7.5 7.5v186.28 44.636c0 12.407 10.094 22.5 22.5 22.5h151.144v25.657h-21.752c-14.78 0-26.806 12.025-26.806 26.806v15.723c0 6.811 5.541 12.352 12.352 12.352h222.294c6.811 0 12.352-5.541 12.352-12.352v-15.723c0-14.781-12.025-26.806-26.806-26.806h-21.753v-25.657h151.145c12.406 0 22.5-10.093 22.5-22.5v-44.636-295.477c-.001-12.406-10.095-22.5-22.501-22.5zm-129.392 425.77c6.51 0 11.806 5.296 11.806 11.806v13.075h-216.997v-13.075c0-6.51 5.296-11.806 11.806-11.806h29.252 134.881zm-156.634-15v-25.657h119.881v25.657zm293.526-48.156c0 3.618-2.576 6.647-5.99 7.347-.488.1-.993.153-1.51.153h-158.645-134.881-158.643c-.517 0-1.022-.053-1.51-.153-3.415-.701-5.99-3.729-5.99-7.347v-37.136h99.164 268.844 99.161zm0-52.137h-91.661v-46.113c0-4.142-3.357-7.5-7.5-7.5s-7.5 3.358-7.5 7.5v46.113h-253.844v-336.879c0-2.725 2.217-4.942 4.942-4.942h243.959c2.726 0 4.942 2.217 4.942 4.942v257.099c0 4.142 3.357 7.5 7.5 7.5s7.5-3.358 7.5-7.5v-215.697h84.161c4.136 0 7.5 3.364 7.5 7.5v287.977z"/><path d="m234.621 173.162h42.751c7.646 0 13.867-6.221 13.867-13.867v-26.462c0-8.298-3.697-15.745-9.526-20.793 4.171-5.45 6.657-12.255 6.657-19.633 0-17.85-14.522-32.373-32.373-32.373s-32.373 14.522-32.373 32.373c0 7.382 2.489 14.19 6.664 19.642-5.829 5.047-9.533 12.486-9.533 20.784v26.462c0 7.646 6.22 13.867 13.866 13.867zm21.376-98.128c9.579 0 17.373 7.793 17.373 17.373s-7.794 17.373-17.373 17.373-17.373-7.793-17.373-17.373 7.794-17.373 17.373-17.373zm-20.242 57.799c0-4.788 2.711-8.944 6.672-11.046 4.13 1.915 8.726 2.992 13.57 2.992 4.913 0 9.57-1.105 13.745-3.072-.046.027-.09.059-.136.086 3.943 2.109 6.633 6.264 6.633 11.039v25.329h-40.484z"/><path d="m342.535 172.011c6.833-13.294 10.701-28.352 10.701-44.3 0-53.617-43.62-97.238-97.237-97.238s-97.237 43.621-97.237 97.238 43.62 97.238 97.237 97.238c7.131 0 14.081-.779 20.778-2.245 3.844 22.02 23.086 38.817 46.191 38.817 25.861 0 46.901-21.04 46.901-46.902 0-18.879-11.219-35.177-27.334-42.608zm-65.897 35.297c-6.599 1.715-13.512 2.641-20.64 2.641-45.346 0-82.237-36.892-82.237-82.238s36.892-82.238 82.237-82.238 82.237 36.892 82.237 82.238c0 14.614-3.85 28.338-10.564 40.243-1.548-.155-3.117-.236-4.704-.236-23.375-.001-42.807 17.189-46.329 39.59zm46.33 39.213c-17.591 0-31.902-14.311-31.902-31.902s14.312-31.902 31.902-31.902 31.901 14.311 31.901 31.902-14.311 31.902-31.901 31.902z"/><path d="m319.297 233.4c-1.843 0-3.63-.679-5.013-1.921l-8.068-7.249c-3.081-2.768-3.335-7.51-.566-10.591s7.509-3.335 10.592-.567l2.018 1.813 11.515-15.12c2.509-3.295 7.215-3.933 10.511-1.422 3.296 2.51 3.933 7.216 1.423 10.511l-16.443 21.59c-1.27 1.666-3.178 2.726-5.263 2.922-.238.024-.473.034-.706.034z"/></svg>