<svg fill="white" height="512pt" viewBox="-17 0 512 512" width="512pt" xmlns="http://www.w3.org/2000/svg"><path d="m121.757812 92.6875c0 4.144531 3.355469 7.5 7.5 7.5h53.128907c4.144531 0 7.5-3.355469 7.5-7.5 0-4.140625-3.355469-7.5-7.5-7.5h-53.128907c-4.144531 0-7.5 3.359375-7.5 7.5zm0 0"/><path d="m117.640625 76.582031c1.921875 0 3.839844-.730469 5.304687-2.195312l37.566407-37.546875c2.929687-2.929688 2.929687-7.679688.003906-10.609375-2.929687-2.929688-7.679687-2.929688-10.605469 0l-37.570312 37.546875c-2.929688 2.929687-2.929688 7.675781 0 10.605468 1.460937 1.46875 3.382812 2.199219 5.300781 2.199219zm0 0"/><path d="m92.730469 68.105469c4.140625 0 7.5-3.359375 7.5-7.5v-53.105469c0-4.144531-3.359375-7.5-7.5-7.5-4.144531 0-7.5 3.355469-7.5 7.5v53.105469c0 4.140625 3.359375 7.5 7.5 7.5zm0 0"/><path d="m63.8125 77.519531c1.464844 1.464844 3.382812 2.195313 5.300781 2.195313 1.921875 0 3.839844-.730469 5.308594-2.199219 2.925781-2.929687 2.925781-7.675781-.003906-10.605469l-37.570313-37.550781c-2.929687-2.929687-7.679687-2.929687-10.605468.003906-2.929688 2.929688-2.929688 7.679688 0 10.605469zm0 0"/><path d="m68.132812 97.113281c0-4.140625-3.359374-7.5-7.5-7.5h-53.132812c-4.144531 0-7.5 3.359375-7.5 7.5 0 4.144531 3.355469 7.5 7.5 7.5h53.132812c4.140626 0 7.5-3.355469 7.5-7.5zm0 0"/><path d="m66.941406 115.410156-37.566406 37.554688c-2.929688 2.925781-2.933594 7.675781-.003906 10.605468 1.464844 1.464844 3.386718 2.195313 5.304687 2.195313s3.839844-.730469 5.300781-2.195313l37.570313-37.550781c2.929687-2.929687 2.929687-7.675781.003906-10.605469-2.929687-2.929687-7.679687-2.933593-10.609375-.003906zm0 0"/><path d="m104.652344 227.402344c0-4.144532-3.355469-7.5-7.5-7.5-4.140625 0-7.5 3.355468-7.5 7.5v32.746094c0 4.144531 3.359375 7.5 7.5 7.5 4.144531 0 7.5-3.355469 7.5-7.5zm0 0"/><path d="m104.65625 126.15625c0-4.140625-3.355469-7.5-7.5-7.5s-7.5 3.359375-7.5 7.5v74.894531c0 4.144531 3.355469 7.5 7.5 7.5s7.5-3.355469 7.5-7.5zm0 0"/><path d="m97.152344 275.460938c-4.140625 0-7.5 3.355468-7.5 7.5v7.40625c0 4.140624 3.359375 7.5 7.5 7.5 4.144531 0 7.5-3.359376 7.5-7.5v-7.40625c0-4.144532-3.355469-7.5-7.5-7.5zm0 0"/><path d="m77.765625 103.742188 8.335937 8.335937c2.359376 2.355469 5.5 3.652344 8.84375 3.652344 3.339844 0 6.476563-1.296875 8.835938-3.652344l8.339844-8.335937c2.359375-2.355469 3.660156-5.496094 3.660156-8.839844s-1.296875-6.480469-3.65625-8.839844l-8.339844-8.335938c-2.355468-2.355468-5.496094-3.652343-8.839844-3.652343s-6.480468 1.296875-8.839843 3.652343l-8.34375 8.335938c-4.871094 4.875-4.871094 12.804688.003906 17.679688zm17.179687-13.640626 4.804688 4.800782-4.804688 4.804687-4.804687-4.804687zm0 0"/><path d="m471.054688 497h-24.277344v-22.070312c0-8.664063-3.640625-16.492188-9.464844-22.046876v-23.882812c0-4.144531-3.359375-7.5-7.5-7.5-4.144531 0-7.5 3.355469-7.5 7.5v16.035156c-1.957031-.394531-3.976562-.605468-6.046875-.605468-10.574219 0-20.007813 5.3125-25.503906 13.707031-4.273438-2.195313-9.054688-3.378907-13.945313-3.378907-1.078125 0-2.144531.0625-3.207031.171876v-302.582032c0-6.933594-5.640625-12.574218-12.574219-12.574218h-61.8125v-56.039063h123.089844v310.265625c0 4.144531 3.355469 7.5 7.5 7.5 4.140625 0 7.5-3.355469 7.5-7.5v-312.691406c0-6.9375-5.640625-12.574219-12.578125-12.574219h-127.933594c-6.9375 0-12.578125 5.640625-12.578125 12.574219v58.464844h-58.945312c-4.144532 0-7.5 3.355468-7.5 7.5 0 4.140624 3.355468 7.5 7.5 7.5h133.332031v289.84375c-5.496094-5.335938-12.984375-8.636719-21.238281-8.636719-16.820313 0-30.511719 13.683593-30.511719 30.5v30.519531h-17.742187v-81.554688c0-6.933593-5.640626-12.574218-12.578126-12.574218h-62.511718c-6.933594 0-12.578125 5.640625-12.578125 12.574218v81.554688h-13.644531v-56.003906c0-4.144532-3.359376-7.5-7.5-7.5-4.144532 0-7.5 3.355468-7.5 7.5v31.460937h-81.972657v-126.703125h81.972657v60.246094c0 4.144531 3.355468 7.5 7.5 7.5 4.140624 0 7.5-3.355469 7.5-7.5v-62.746094c0-6.894531-5.609376-12.5-12.5-12.5h-43.347657v-175.980468h57.320313c4.144531 0 7.5-3.359376 7.5-7.5 0-4.144532-3.355469-7.5-7.5-7.5h-35.699219l-27.503906-27.492188c-2.929688-2.929688-7.675781-2.929688-10.605469.003906-2.929688 2.929688-2.925781 7.675782.003906 10.605469l16.890625 16.882813h-2.828125c-6.933594 0-12.578125 5.640624-12.578125 12.574218v178.402344h-28.625c-6.890625 0-12.5 5.609375-12.5 12.5v153.75h-33.742187c-4.144532 0-7.5 3.355469-7.5 7.5s3.355468 7.5 7.5 7.5h428.964844c4.144531 0 7.5-3.355469 7.5-7.5s-3.359376-7.5-7.5-7.5zm-376.949219 0h-3.273438v-9.542969h3.273438zm22.851562 0h-7.851562v-9.542969h7.851562zm37.566407 0h-22.566407v-9.542969h22.566407zm18.277343 0h-3.277343v-9.542969h3.277343zm64.984375 0h-21.335937v-79.128906h21.335937zm36.332032 0h-21.332032v-79.128906h21.332032zm157.660156 0h-109.917969v-30.519531c0-8.546875 6.960937-15.5 15.511719-15.5 8.554687 0 15.511718 6.953125 15.511718 15.5v2.683593c0 3.050782 1.84375 5.792969 4.664063 6.945313 2.824219 1.152344 6.0625.480469 8.191406-1.695313 2.945313-3.003906 6.878907-4.65625 11.078125-4.65625 4.359375 0 8.542969 1.847657 11.480469 5.070313 1.878906 2.066406 4.75 2.914063 7.449219 2.203125 2.699218-.707031 4.78125-2.855469 5.40625-5.578125 1.621094-7.078125 7.835937-12.023437 15.113281-12.023437 8.550781 0 15.511719 6.953124 15.511719 15.5zm0 0"/><path d="m187.800781 179.746094c0-4.140625-3.355469-7.5-7.5-7.5h-28.429687c-4.144532 0-7.5 3.359375-7.5 7.5v28.417968c0 4.140626 3.355468 7.5 7.5 7.5h28.429687c4.144531 0 7.5-3.359374 7.5-7.5zm-15 20.917968h-13.429687v-13.417968h13.429687zm0 0"/><path d="m187.800781 235.5625c0-4.140625-3.355469-7.5-7.5-7.5h-28.429687c-4.144532 0-7.5 3.359375-7.5 7.5v28.417969c0 4.140625 3.355468 7.5 7.5 7.5h28.429687c4.144531 0 7.5-3.359375 7.5-7.5zm-15 20.917969h-13.429687v-13.417969h13.429687zm0 0"/><path d="m180.300781 283.882812h-28.429687c-4.144532 0-7.5 3.355469-7.5 7.5v28.414063c0 4.144531 3.355468 7.5 7.5 7.5h28.429687c4.144531 0 7.5-3.355469 7.5-7.5v-28.414063c0-4.144531-3.355469-7.5-7.5-7.5zm-7.5 28.414063h-13.429687v-13.414063h13.429687zm0 0"/><path d="m240.597656 179.746094c0-4.140625-3.355468-7.5-7.5-7.5h-28.429687c-4.140625 0-7.5 3.359375-7.5 7.5v28.417968c0 4.140626 3.359375 7.5 7.5 7.5h28.429687c4.144532 0 7.5-3.359374 7.5-7.5zm-15 20.917968h-13.429687v-13.417968h13.429687zm0 0"/><path d="m240.597656 235.5625c0-4.140625-3.355468-7.5-7.5-7.5h-28.429687c-4.140625 0-7.5 3.359375-7.5 7.5v28.417969c0 4.140625 3.359375 7.5 7.5 7.5h28.429687c4.144532 0 7.5-3.359375 7.5-7.5zm-15 20.917969h-13.429687v-13.417969h13.429687zm0 0"/><path d="m240.597656 291.382812c0-4.144531-3.355468-7.5-7.5-7.5h-28.429687c-4.140625 0-7.5 3.355469-7.5 7.5v28.414063c0 4.144531 3.359375 7.5 7.5 7.5h28.429687c4.144532 0 7.5-3.355469 7.5-7.5zm-15 20.914063h-13.429687v-13.414063h13.429687zm0 0"/><path d="m233.097656 339.695312h-28.429687c-4.140625 0-7.5 3.359376-7.5 7.5v28.417969c0 4.144531 3.359375 7.5 7.5 7.5h28.429687c4.144532 0 7.5-3.355469 7.5-7.5v-28.417969c0-4.140624-3.355468-7.5-7.5-7.5zm-7.5 28.417969h-13.429687v-13.417969h13.429687zm0 0"/><path d="m257.46875 215.664062h28.429688c4.140624 0 7.5-3.359374 7.5-7.5v-28.417968c0-4.140625-3.359376-7.5-7.5-7.5h-28.429688c-4.144531 0-7.5 3.359375-7.5 7.5v28.417968c0 4.140626 3.355469 7.5 7.5 7.5zm7.5-28.417968h13.429688v13.417968h-13.429688zm0 0"/><path d="m249.96875 263.980469c0 4.140625 3.355469 7.5 7.5 7.5h28.429688c4.140624 0 7.5-3.359375 7.5-7.5v-28.417969c0-4.140625-3.359376-7.5-7.5-7.5h-28.429688c-4.144531 0-7.5 3.359375-7.5 7.5zm15-20.917969h13.429688v13.417969h-13.429688zm0 0"/><path d="m249.96875 319.796875c0 4.144531 3.355469 7.5 7.5 7.5h28.429688c4.140624 0 7.5-3.355469 7.5-7.5v-28.414063c0-4.144531-3.359376-7.5-7.5-7.5h-28.429688c-4.144531 0-7.5 3.355469-7.5 7.5zm15-20.914063h13.429688v13.414063h-13.429688zm0 0"/><path d="m249.96875 375.613281c0 4.144531 3.355469 7.5 7.5 7.5h28.429688c4.140624 0 7.5-3.355469 7.5-7.5v-28.417969c0-4.140624-3.359376-7.5-7.5-7.5h-28.429688c-4.144531 0-7.5 3.359376-7.5 7.5zm15-20.917969h13.429688v13.417969h-13.429688zm0 0"/><path d="m310.265625 215.664062h28.429687c4.144532 0 7.5-3.359374 7.5-7.5v-28.417968c0-4.140625-3.355468-7.5-7.5-7.5h-28.429687c-4.140625 0-7.5 3.359375-7.5 7.5v28.417968c0 4.140626 3.359375 7.5 7.5 7.5zm7.5-28.417968h13.429687v13.417968h-13.429687zm0 0"/><path d="m302.765625 263.980469c0 4.140625 3.359375 7.5 7.5 7.5h28.429687c4.144532 0 7.5-3.359375 7.5-7.5v-28.417969c0-4.140625-3.355468-7.5-7.5-7.5h-28.429687c-4.140625 0-7.5 3.359375-7.5 7.5zm15-20.917969h13.429687v13.417969h-13.429687zm0 0"/><path d="m302.765625 319.796875c0 4.144531 3.359375 7.5 7.5 7.5h28.429687c4.144532 0 7.5-3.355469 7.5-7.5v-28.414063c0-4.144531-3.355468-7.5-7.5-7.5h-28.429687c-4.140625 0-7.5 3.355469-7.5 7.5zm15-20.914063h13.429687v13.414063h-13.429687zm0 0"/><path d="m302.765625 375.613281c0 4.144531 3.359375 7.5 7.5 7.5h28.429687c4.144532 0 7.5-3.355469 7.5-7.5v-28.417969c0-4.140624-3.355468-7.5-7.5-7.5h-28.429687c-4.140625 0-7.5 3.359376-7.5 7.5zm15-20.917969h13.429687v13.417969h-13.429687zm0 0"/><path d="m162.3125 398.824219c0-4.980469-1.96875-9.652344-5.535156-13.148438-3.535156-3.472656-8.222656-5.382812-13.207032-5.382812-4.324218 0-8.429687 1.441406-11.753906 4.097656-3.320312-2.65625-7.429687-4.097656-11.757812-4.097656-4.984375 0-9.671875 1.910156-13.191406 5.375-3.574219 3.5-5.546876 8.175781-5.546876 13.15625 0 4.976562 1.96875 9.648437 5.539063 13.152343l18.125 17.792969c1.828125 1.800781 4.253906 2.796875 6.832031 2.796875s5.003906-.996094 6.820313-2.785156l18.136719-17.804688c3.570312-3.503906 5.539062-8.175781 5.539062-13.152343zm-16.046875 2.449219-14.449219 14.183593-14.449218-14.1875c-.683594-.667969-1.046876-1.515625-1.046876-2.445312 0-.929688.359376-1.773438 1.054688-2.453125.71875-.707032 1.644531-1.078125 2.6875-1.078125 1.039062 0 1.972656.375 2.699219 1.089843l3.804687 3.730469c2.917969 2.859375 7.589844 2.859375 10.503906-.003906l3.808594-3.730469c.722656-.710937 1.65625-1.085937 2.695313-1.085937 1.039062 0 1.96875.371093 2.695312 1.089843.683594.667969 1.042969 1.511719 1.042969 2.441407 0 .929687-.363281 1.777343-1.046875 2.449219zm0 0"/><path d="m116.078125 440.167969c-4.144531 0-7.5 3.355469-7.5 7.5 0 4.140625 3.355469 7.5 7.5 7.5h31.476563c4.144531 0 7.5-3.359375 7.5-7.5 0-4.144531-3.355469-7.5-7.5-7.5zm0 0"/><path d="m147.554688 371.949219c4.140624 0 7.5-3.355469 7.5-7.5 0-4.140625-3.359376-7.5-7.5-7.5h-31.476563c-4.144531 0-7.5 3.359375-7.5 7.5 0 4.144531 3.355469 7.5 7.5 7.5zm0 0"/><path d="m315.65625 111.355469c-4.144531 0-7.5 3.359375-7.5 7.5 0 4.144531 3.355469 7.5 7.5 7.5h13.152344c4.140625 0 7.5-3.355469 7.5-7.5 0-4.140625-3.359375-7.5-7.5-7.5zm0 0"/><path d="m354.191406 111.355469c-4.140625 0-7.5 3.359375-7.5 7.5 0 4.144531 3.359375 7.5 7.5 7.5h13.152344c4.144531 0 7.5-3.355469 7.5-7.5 0-4.140625-3.355469-7.5-7.5-7.5zm0 0"/><path d="m405.878906 111.355469h-13.152344c-4.140624 0-7.5 3.359375-7.5 7.5 0 4.144531 3.359376 7.5 7.5 7.5h13.152344c4.144532 0 7.5-3.355469 7.5-7.5 0-4.140625-3.355468-7.5-7.5-7.5zm0 0"/><path d="m405.878906 137.742188h-13.152344c-4.140624 0-7.5 3.355468-7.5 7.5 0 4.144531 3.359376 7.5 7.5 7.5h13.152344c4.144532 0 7.5-3.355469 7.5-7.5 0-4.140626-3.355468-7.5-7.5-7.5zm0 0"/><path d="m405.878906 164.128906h-13.152344c-4.140624 0-7.5 3.355469-7.5 7.5 0 4.144532 3.359376 7.5 7.5 7.5h13.152344c4.144532 0 7.5-3.355468 7.5-7.5 0-4.144531-3.355468-7.5-7.5-7.5zm0 0"/><path d="m405.878906 190.515625h-13.152344c-4.140624 0-7.5 3.355469-7.5 7.5 0 4.140625 3.359376 7.5 7.5 7.5h13.152344c4.144532 0 7.5-3.359375 7.5-7.5 0-4.144531-3.355468-7.5-7.5-7.5zm0 0"/><path d="m405.878906 216.898438h-13.152344c-4.140624 0-7.5 3.359374-7.5 7.5 0 4.144531 3.359376 7.5 7.5 7.5h13.152344c4.144532 0 7.5-3.355469 7.5-7.5 0-4.140626-3.355468-7.5-7.5-7.5zm0 0"/><path d="m405.878906 243.285156h-13.152344c-4.140624 0-7.5 3.359375-7.5 7.5 0 4.144532 3.359376 7.5 7.5 7.5h13.152344c4.144532 0 7.5-3.355468 7.5-7.5 0-4.140625-3.355468-7.5-7.5-7.5zm0 0"/><path d="m405.878906 269.671875h-13.152344c-4.140624 0-7.5 3.359375-7.5 7.5 0 4.144531 3.359376 7.5 7.5 7.5h13.152344c4.144532 0 7.5-3.355469 7.5-7.5 0-4.140625-3.355468-7.5-7.5-7.5zm0 0"/><path d="m405.878906 296.058594h-13.152344c-4.140624 0-7.5 3.355468-7.5 7.5 0 4.144531 3.359376 7.5 7.5 7.5h13.152344c4.144532 0 7.5-3.355469 7.5-7.5 0-4.144532-3.355468-7.5-7.5-7.5zm0 0"/><path d="m405.878906 322.445312h-13.152344c-4.140624 0-7.5 3.355469-7.5 7.5 0 4.144532 3.359376 7.5 7.5 7.5h13.152344c4.144532 0 7.5-3.355468 7.5-7.5 0-4.140624-3.355468-7.5-7.5-7.5zm0 0"/><path d="m405.878906 348.832031h-13.152344c-4.140624 0-7.5 3.355469-7.5 7.5 0 4.140625 3.359376 7.5 7.5 7.5h13.152344c4.144532 0 7.5-3.359375 7.5-7.5 0-4.144531-3.355468-7.5-7.5-7.5zm0 0"/><path d="m405.878906 375.21875h-13.152344c-4.140624 0-7.5 3.355469-7.5 7.5 0 4.140625 3.359376 7.5 7.5 7.5h13.152344c4.144532 0 7.5-3.359375 7.5-7.5 0-4.144531-3.355468-7.5-7.5-7.5zm0 0"/><path d="m194.046875 61h10v10c0 4.144531 3.359375 7.5 7.5 7.5 4.144531 0 7.5-3.355469 7.5-7.5v-10h10c4.144531 0 7.5-3.355469 7.5-7.5s-3.355469-7.5-7.5-7.5h-10v-10c0-4.144531-3.355469-7.5-7.5-7.5-4.140625 0-7.5 3.355469-7.5 7.5v10h-10c-4.140625 0-7.5 3.355469-7.5 7.5s3.359375 7.5 7.5 7.5zm0 0"/><path d="m42.046875 235v-10h10c4.144531 0 7.5-3.355469 7.5-7.5s-3.355469-7.5-7.5-7.5h-10v-10c0-4.144531-3.355469-7.5-7.5-7.5-4.140625 0-7.5 3.355469-7.5 7.5v10h-10c-4.140625 0-7.5 3.355469-7.5 7.5s3.359375 7.5 7.5 7.5h10v10c0 4.144531 3.359375 7.5 7.5 7.5 4.144531 0 7.5-3.355469 7.5-7.5zm0 0"/></svg>