<svg fill="white" id="Layer_1" enable-background="new 0 0 512 512" height="512" viewBox="0 0 512 512" width="512" xmlns="http://www.w3.org/2000/svg"><g><path d="m143.167 150h-105.667c-20.678 0-37.5 16.822-37.5 37.5v122.011c0 12.407 10.093 22.5 22.5 22.5 2.629 0 5.153-.458 7.5-1.29v124.863c0 14.565 11.851 26.416 26.417 26.416s26.417-11.851 26.417-26.417v-138.572h15v138.573c0 14.566 11.851 26.417 26.417 26.417s26.417-11.851 26.417-26.417v-124.786c2.337.784 4.858 1.213 7.5 1.213 12.617 0 22.5-9.664 22.5-22v-122.511c-.001-20.678-16.824-37.5-37.501-37.5zm22.5 160.011c0 3.991-3.224 7-7.5 7s-7.5-3.009-7.5-7v-122.511c0-4.142-3.358-7.5-7.5-7.5s-7.5 3.358-7.5 7.5v268.083c0 6.295-5.122 11.417-11.417 11.417s-11.417-5.122-11.417-11.417v-146.072c0-4.142-3.358-7.5-7.5-7.5h-30c-4.142 0-7.5 3.358-7.5 7.5v146.073c0 6.295-5.122 11.417-11.417 11.417s-11.416-5.123-11.416-11.418v-223.083c0-4.142-3.358-7.5-7.5-7.5s-7.5 3.358-7.5 7.5v77.011c0 4.136-3.364 7.5-7.5 7.5s-7.5-3.364-7.5-7.5v-122.011c0-12.407 10.093-22.5 22.5-22.5h105.667c12.407 0 22.5 10.093 22.5 22.5z"/><path d="m37.5 180c-4.142 0-7.5 3.358-7.5 7.5v15c0 4.142 3.358 7.5 7.5 7.5s7.5-3.358 7.5-7.5v-15c0-4.142-3.358-7.5-7.5-7.5z"/><path d="m90.004 135c28.949 0 52.5-23.551 52.5-52.5s-23.551-52.5-52.5-52.5-52.5 23.551-52.5 52.5 23.552 52.5 52.5 52.5zm0-90c20.678 0 37.5 16.822 37.5 37.5s-16.822 37.5-37.5 37.5-37.5-16.822-37.5-37.5 16.823-37.5 37.5-37.5z"/><path d="m353.833 30c-87.213 0-158.167 70.953-158.167 158.167s70.953 158.167 158.167 158.167 158.167-70.954 158.167-158.167-70.953-158.167-158.167-158.167zm0 301.333c-78.942 0-143.167-64.224-143.167-143.167s64.225-143.166 143.167-143.166 143.167 64.224 143.167 143.167-64.224 143.166-143.167 143.166z"/><path d="m353.833 90c-54.129 0-98.167 44.037-98.167 98.167s44.037 98.167 98.167 98.167 98.167-44.038 98.167-98.167-44.037-98.167-98.167-98.167zm0 181.333c-45.858 0-83.167-37.308-83.167-83.167s37.309-83.166 83.167-83.166 83.167 37.308 83.167 83.167-37.308 83.166-83.167 83.166z"/><path d="m353.833 120c-37.587 0-68.167 30.58-68.167 68.167s30.58 68.167 68.167 68.167 68.167-30.581 68.167-68.167-30.58-68.167-68.167-68.167zm0 121.333c-29.316 0-53.167-23.851-53.167-53.167s23.852-53.166 53.167-53.166 53.167 23.851 53.167 53.167-23.851 53.166-53.167 53.166z"/><path d="m353.833 150c-4.142 0-7.5 3.358-7.5 7.5v26.336l-22.808 13.168c-3.587 2.071-4.816 6.658-2.745 10.245 1.389 2.406 3.91 3.751 6.502 3.751 1.272 0 2.562-.324 3.743-1.006l26.558-15.333c2.32-1.34 3.75-3.815 3.75-6.495v-30.666c0-4.142-3.357-7.5-7.5-7.5z"/></g></svg>