<svg fill="white" id="Capa_1" enable-background="new 0 0 512 512" height="512" viewBox="0 0 512 512" width="512" xmlns="http://www.w3.org/2000/svg"><g><path d="m414.5 25.835h-267.543c-4.143 0-7.5 3.358-7.5 7.5s3.357 7.5 7.5 7.5h267.543c45.49 0 82.5 37.009 82.5 82.5v105.103c0 4.142 3.357 7.5 7.5 7.5s7.5-3.358 7.5-7.5v-105.103c0-53.762-43.738-97.5-97.5-97.5z"/><path d="m504.5 256.108c-4.143 0-7.5 3.358-7.5 7.5v64.727c0 45.491-37.01 82.5-82.5 82.5h-268.317c-4.814 0-9.412 1.504-13.298 4.351l-24.868 18.222c-3.342 2.448-4.065 7.142-1.617 10.483 1.47 2.005 3.747 3.067 6.056 3.067 1.538 0 3.091-.472 4.427-1.451l24.867-18.221c1.296-.949 2.829-1.451 4.434-1.451h268.316c53.762 0 97.5-43.738 97.5-97.5v-64.727c0-4.142-3.357-7.5-7.5-7.5z"/><path d="m79.787 454.092-21.436 15.707c-2.326 1.705-5.252 1.944-7.825.64-2.572-1.305-4.108-3.805-4.108-6.689v-60.525c0-5.988-2.461-11.842-6.753-16.061-15.905-15.64-24.665-36.532-24.665-58.829v-205c0-45.491 37.01-82.5 82.5-82.5h14.351c4.143 0 7.5-3.358 7.5-7.5s-3.357-7.5-7.5-7.5h-14.351c-53.762 0-97.5 43.738-97.5 97.5v205c0 26.352 10.352 51.043 29.149 69.524 1.463 1.438 2.269 3.344 2.269 5.365v60.525c0 8.524 4.723 16.213 12.325 20.068 6.508 3.27 15.822 3.555 23.474-1.918l21.436-15.707c3.342-2.448 4.065-7.142 1.617-10.482-2.45-3.343-7.142-4.067-10.483-1.618z"/><path d="m173.614 83.904c-4.065-.81-8.012 1.83-8.819 5.892l-18.421 92.551-28.805-93.505c-1.22-3.958-5.418-6.176-9.376-4.959-2.776.855-4.691 3.176-5.171 5.85l-28.666 92.614-18.346-92.752c-.804-4.063-4.747-6.706-8.813-5.902-4.063.804-6.706 4.75-5.902 8.813.524 2.228 21.827 111.146 22.5 113.335 1.426 4.016 5.234 6.702 9.491 6.702h.069c4.284-.029 8.089-2.774 9.468-6.83.022-.065.044-.131.064-.196l27.529-88.94 27.406 88.963c.032.102.065.204.102.305 1.428 4.015 5.235 6.699 9.491 6.699h.07c4.283-.03 8.087-2.774 9.466-6.83.455-1.308 22.236-111.734 22.554-112.989.809-4.063-1.828-8.012-5.891-8.821z"/><path d="m386.877 83.551c-4.143 0-7.5 3.358-7.5 7.5v22.141h-8.869c-4.143 0-7.5 3.358-7.5 7.5s3.357 7.5 7.5 7.5h8.869v76.852c0 4.142 3.357 7.5 7.5 7.5s7.5-3.358 7.5-7.5v-76.852h9.016c4.143 0 7.5-3.358 7.5-7.5s-3.357-7.5-7.5-7.5h-9.016v-22.141c0-4.142-3.357-7.5-7.5-7.5z"/><path d="m433.326 137.526c11.76-3.545 22.465 4.99 22.718 5.194 3.171 2.638 7.88 2.221 10.537-.94 2.665-3.171 2.255-7.902-.915-10.567-.683-.574-16.952-13.988-36.666-8.049-9.729 2.931-16.607 10.568-17.951 19.932-1.254 8.738 2.531 17.141 9.879 21.931.987.675 11.841 5.31 23.578 9.707 8.024 2.96 12.113 7.532 11.219 12.545-.901 5.046-6.838 10.266-15.213 10.266-7.963 0-15.649-3.178-20.643-8.518-2.777-2.969-7.392-3.618-10.54-1.046-3.351 2.737-3.69 7.685-.821 10.851 7.781 8.587 19.745 13.713 32.004 13.713 14.787 0 27.676-9.729 29.979-22.629 1.748-9.79-2.797-22.616-20.794-29.255-8.102-2.988-15.717-6.206-19.367-7.782-2.974-1.284-4.873-4.358-4.446-7.569.004-.028.008-.055.011-.083.515-3.576 3.293-6.454 7.431-7.701z"/><path d="m201.182 83.551c-4.143 0-7.5 3.358-7.5 7.5v113.993c0 4.142 3.357 7.5 7.5 7.5s7.5-3.358 7.5-7.5v-39.13c0-17.25 8.738-29.299 21.25-29.299 7.019 0 9.909 2.089 11.473 3.661 4.073 4.095 6.105 12.708 6.038 25.666l.144 39.13c.016 4.133 3.37 7.473 7.499 7.473h.028c4.143-.015 7.488-3.385 7.473-7.527l-.144-39.064c.091-17.509-3.215-29.03-10.404-36.256-5.41-5.438-12.641-8.082-22.106-8.082-8.132 0-15.395 2.802-21.25 7.715v-38.28c-.001-4.142-3.359-7.5-7.501-7.5z"/><path d="m350.699 212.544c4.143 0 7.5-3.358 7.5-7.5v-77.523c0-4.142-3.357-7.5-7.5-7.5s-7.5 3.358-7.5 7.5v6.755c-7.242-6.054-16.557-9.706-26.713-9.706-23 0-41.712 18.712-41.712 41.712s18.712 41.712 41.712 41.712c10.155 0 19.471-3.652 26.713-9.706v6.755c0 4.143 3.358 7.501 7.5 7.501zm-34.213-19.549c-14.729 0-26.712-11.983-26.712-26.712s11.983-26.712 26.712-26.712 26.713 11.983 26.713 26.712-11.983 26.712-26.713 26.712z"/><path d="m243.887 288.036c-1.346-3.917-5.609-6.003-9.53-4.655-3.917 1.346-6.002 5.613-4.655 9.53l25.891 75.34c1.036 3.014 3.863 5.044 7.05 5.063h.043c3.17 0 6-1.994 7.064-4.982l19.865-55.742 18.983 55.646c1.032 3.026 3.87 5.065 7.067 5.079h.031c3.185 0 6.023-2.012 7.078-5.019l26.438-75.428c1.37-3.909-.688-8.188-4.598-9.559-3.906-1.373-8.188.688-9.559 4.597l-19.265 54.961-18.924-55.474c-2.12-5.717-10.76-7.825-14.163-.096l-19.891 55.814z"/><path d="m112.326 327.606c-.002.069-.003.138-.003.208v37.343c0 4.142 3.357 7.5 7.5 7.5s7.5-3.358 7.5-7.5v-37.241c.522-25.008-7.564-43.69-32.053-44.576-7.213 0-14.451 2.362-20.493 7.307v-.534c0-4.142-3.357-7.5-7.5-7.5s-7.5 3.358-7.5 7.5v75.402c0 4.142 3.357 7.5 7.5 7.5s7.5-3.358 7.5-7.5v-36.393c0-18.7 8.044-30.783 20.493-30.783 14.471.478 17.002 12.127 17.056 29.267z"/><path d="m141.426 323.935c.001.414.091 2.488.135 3.879 0 24.798 20.174 44.973 44.972 44.973 11.321-.259 21.603-4.088 29.354-13.259 2.661-3.174 2.246-7.904-.928-10.566s-7.904-2.246-10.566.927c-3.46 4.414-10.491 7.964-17.86 7.898-13.515 0-24.964-8.994-28.69-21.309l58.15.113h.015c1.986 0 3.892-.788 5.298-2.191 1.41-1.407 2.202-3.317 2.202-5.309v-5.209c0-22.629-18.41-41.04-41.04-41.04s-41.042 18.434-41.042 41.093zm66.979-2.359-51.865-.101c1.241-13.24 12.396-23.634 25.927-23.634 13.581 0 24.767 10.452 25.938 23.735z"/><path d="m379.3 375.711c-1.786-.925-8.031-.41-9.941 4.641-1.452 4.01.625 8.46 4.655 9.93 2.985.993 7.667.188 9.921-4.658 1.451-4.02-.639-8.471-4.635-9.913z"/><path d="m393.958 358.966 9.142-25.117c8.091 1.316 16.361.072 23.89-3.679 9.808-4.887 16.98-13.36 20.195-23.859 6.038-19.714-4.306-40.989-23.549-48.435-20.214-7.757-43.832 2.299-51.469 23.361-1.416 3.893.592 8.196 4.484 9.612 3.898 1.417 8.197-.593 9.611-4.485 4.033-12.059 19.389-19.611 31.96-14.499 11.943 4.622 18.366 17.823 14.62 30.053-1.999 6.526-6.454 11.792-12.544 14.826-6.094 3.036-12.968 3.428-19.356 1.103-1.869-.68-3.933-.59-5.735.25s-3.197 2.363-3.878 4.232l-11.467 31.505c-1.417 3.892.591 8.196 4.482 9.613.847.308 1.713.454 2.564.454 3.066.002 5.942-1.889 7.05-4.935z"/></g></svg>